<svg id="Layer_1" data-name="Layer 1" xmlns="http://www.w3.org/2000/svg" viewBox="0 0 180 80.21"><defs><style>.cls-1{font-size:60px;font-family:MicrosoftYaHeiUI, Microsoft YaHei UI;}.cls-2{fill:#fff;}</style></defs><text class="cls-1" transform="translate(0 51.45)">混じる</text><rect x="1.8" y="60.21" width="60" height="20"/><path class="cls-2" d="M70.41,74.68h1.9V88.17h-1.9Zm.82,9.83,5-6h2.23l-7.3,8.21Zm2.24-1.9,1.21-1.26,4.2,6.82H76.82Z" transform="translate(-67.2 -12.79)"/><path class="cls-2" d="M82,87.81a3.25,3.25,0,0,1-1.36-1.43,5.08,5.08,0,0,1-.47-2.27V82.54a5,5,0,0,1,.47-2.24A3.27,3.27,0,0,1,82,78.88a5,5,0,0,1,4.29,0,3.33,3.33,0,0,1,1.36,1.42,5,5,0,0,1,.46,2.24v1.6a5,5,0,0,1-.46,2.25,3.33,3.33,0,0,1-1.36,1.42,4.94,4.94,0,0,1-4.29,0Zm3.68-1.93a2.55,2.55,0,0,0,.54-1.74v-1.6a2.53,2.53,0,0,0-.54-1.73,2,2,0,0,0-1.54-.61,1.92,1.92,0,0,0-1.53.61,2.53,2.53,0,0,0-.54,1.73v1.6a2.55,2.55,0,0,0,.54,1.74,1.9,1.9,0,0,0,1.53.62A1.92,1.92,0,0,0,85.69,85.88Z" transform="translate(-67.2 -12.79)"/><path class="cls-2" d="M90.81,78.54h1.9v9.63h-1.9Zm5.85,3.79a2.22,2.22,0,0,0-.53-1.58,2,2,0,0,0-1.48-.55,2,2,0,0,0-1.44.49,1.87,1.87,0,0,0-.5,1.38l-.2-1.86a3.42,3.42,0,0,1,1.17-1.34,2.8,2.8,0,0,1,1.59-.47,3,3,0,0,1,2.42,1,4.35,4.35,0,0,1,.86,2.9v5.85H96.66Z" transform="translate(-67.2 -12.79)"/><path class="cls-2" d="M100.13,90.28h1.06a.47.47,0,0,0,.4-.19.87.87,0,0,0,.14-.54v-11h1.9v11a2.75,2.75,0,0,1-.59,1.88,2.11,2.11,0,0,1-1.67.67h-1.24Zm1.59-15.6h1.93v1.89h-1.93Z" transform="translate(-67.2 -12.79)"/><path class="cls-2" d="M106.52,74.68h1.89v1.89h-1.89Zm0,3.86h1.89v9.63h-1.89Z" transform="translate(-67.2 -12.79)"/><path class="cls-2" d="M111.29,78.54h1.89v9.63h-1.89ZM116,80.35a2.44,2.44,0,0,0-.89-.15,1.72,1.72,0,0,0-1.89,1.87L113,80.21a3.52,3.52,0,0,1,1.15-1.34,2.78,2.78,0,0,1,1.56-.47,3.46,3.46,0,0,1,1.19.19,2.6,2.6,0,0,1,.93.56l-1.23,1.67A1.63,1.63,0,0,0,116,80.35Z" transform="translate(-67.2 -12.79)"/><path class="cls-2" d="M121.29,84.39a2.18,2.18,0,0,0,.52,1.56,1.86,1.86,0,0,0,1.45.55A2,2,0,0,0,124.7,86a1.85,1.85,0,0,0,.51-1.4l.13,2a2.72,2.72,0,0,1-2.61,1.68,3,3,0,0,1-2.46-1,4.34,4.34,0,0,1-.87-2.89V78.54h1.89Zm3.92-5.85h1.88v9.63h-1.88Z" transform="translate(-67.2 -12.79)"/></svg>